<svg width="544" height="544" viewBox="0 0 544 544" fill="none" xmlns="http://www.w3.org/2000/svg">
<path d="M544 0H0V458H544V0Z" fill="white"/>
<g clip-path="url(#clip0_615_326)">
<path d="M442.72 449.02H477.21C483.62 449.02 488.82 443.82 488.82 437.41V172.59C488.82 166.18 483.62 160.98 477.21 160.98H311.41" stroke="#669AFF" stroke-miterlimit="10"/>
<path d="M446.2 171.83C451.988 171.83 456.68 167.138 456.68 161.35C456.68 155.562 451.988 150.87 446.2 150.87C440.412 150.87 435.72 155.562 435.72 161.35C435.72 167.138 440.412 171.83 446.2 171.83Z" fill="white" stroke="#669AFF" stroke-miterlimit="10"/>
<path d="M444.82 154.99H447.7L447.25 163.72H445.27L444.82 154.99ZM444.82 166.33C444.82 165.52 445.45 164.89 446.26 164.89C447.07 164.89 447.7 165.52 447.7 166.33C447.7 167.14 447.07 167.77 446.26 167.77C445.45 167.77 444.82 167.14 444.82 166.33Z" fill="#669AFF"/>
<path d="M94.88 292.4V409.74C94.88 413.79 98.16 417.07 102.21 417.07H234.91" stroke="#669AFF" stroke-miterlimit="10"/>
<path d="M237.38 285.4H175.82V421.31H237.38V285.4Z" fill="#D9ECFA" stroke="#669AFF" stroke-miterlimit="10"/>
<path d="M495.62 285.4H434.06V421.31H495.62V285.4Z" fill="#D9ECFA" stroke="#669AFF" stroke-miterlimit="10"/>
<path d="M503.71 226.99H170.38C162.145 226.99 155.47 233.665 155.47 241.9V290.73C155.47 298.965 162.145 305.64 170.38 305.64H503.71C511.945 305.64 518.62 298.965 518.62 290.73V241.9C518.62 233.665 511.945 226.99 503.71 226.99Z" fill="white" stroke="#669AFF" stroke-miterlimit="10"/>
<path d="M237.06 267.52H501.69" stroke="#D9ECFA" stroke-miterlimit="10"/>
<path d="M237.18 241.81V293.41" stroke="#D9ECFA" stroke-miterlimit="10"/>
<path d="M254.46 247.12H250.81C248.888 247.12 247.33 248.678 247.33 250.6V254.25C247.33 256.172 248.888 257.73 250.81 257.73H254.46C256.382 257.73 257.94 256.172 257.94 254.25V250.6C257.94 248.678 256.382 247.12 254.46 247.12Z" fill="#D9ECFA"/>
<path d="M321.47 250.33H268.04V255.03H321.47V250.33Z" fill="#D9ECFA"/>
<path d="M226.22 245.74H172.79V259.63H226.22V245.74Z" fill="#D9ECFA"/>
<path d="M341.93 247.12H338.28C336.358 247.12 334.8 248.678 334.8 250.6V254.25C334.8 256.172 336.358 257.73 338.28 257.73H341.93C343.852 257.73 345.41 256.172 345.41 254.25V250.6C345.41 248.678 343.852 247.12 341.93 247.12Z" fill="#D9ECFA"/>
<path d="M408.94 250.33H355.51V255.03H408.94V250.33Z" fill="#D9ECFA"/>
<path d="M430.59 247.12H426.94C425.018 247.12 423.46 248.678 423.46 250.6V254.25C423.46 256.172 425.018 257.73 426.94 257.73H430.59C432.512 257.73 434.07 256.172 434.07 254.25V250.6C434.07 248.678 432.512 247.12 430.59 247.12Z" fill="#D9ECFA"/>
<path d="M497.6 250.33H444.17V255.03H497.6V250.33Z" fill="#D9ECFA"/>
<path d="M254.46 276.36H250.81C248.888 276.36 247.33 277.918 247.33 279.84V283.49C247.33 285.412 248.888 286.97 250.81 286.97H254.46C256.382 286.97 257.94 285.412 257.94 283.49V279.84C257.94 277.918 256.382 276.36 254.46 276.36Z" fill="#D9ECFA"/>
<path d="M180.48 268.19H178.2C177.007 268.19 176.04 269.157 176.04 270.35V272.63C176.04 273.823 177.007 274.79 178.2 274.79H180.48C181.673 274.79 182.64 273.823 182.64 272.63V270.35C182.64 269.157 181.673 268.19 180.48 268.19Z" fill="#669AFF"/>
<path d="M191.18 268.19H188.9C187.707 268.19 186.74 269.157 186.74 270.35V272.63C186.74 273.823 187.707 274.79 188.9 274.79H191.18C192.373 274.79 193.34 273.823 193.34 272.63V270.35C193.34 269.157 192.373 268.19 191.18 268.19Z" fill="#D9ECFA"/>
<path d="M201.89 268.19H199.61C198.417 268.19 197.45 269.157 197.45 270.35V272.63C197.45 273.823 198.417 274.79 199.61 274.79H201.89C203.083 274.79 204.05 273.823 204.05 272.63V270.35C204.05 269.157 203.083 268.19 201.89 268.19Z" fill="#D9ECFA"/>
<path d="M321.47 279.57H268.04V284.27H321.47V279.57Z" fill="#D9ECFA"/>
<path d="M341.93 276.36H338.28C336.358 276.36 334.8 277.918 334.8 279.84V283.49C334.8 285.412 336.358 286.97 338.28 286.97H341.93C343.852 286.97 345.41 285.412 345.41 283.49V279.84C345.41 277.918 343.852 276.36 341.93 276.36Z" fill="#D9ECFA"/>
<path d="M408.94 279.57H355.51V284.27H408.94V279.57Z" fill="#D9ECFA"/>
<path d="M430.59 276.36H426.94C425.018 276.36 423.46 277.918 423.46 279.84V283.49C423.46 285.412 425.018 286.97 426.94 286.97H430.59C432.512 286.97 434.07 285.412 434.07 283.49V279.84C434.07 277.918 432.512 276.36 430.59 276.36Z" fill="#669AFF"/>
<path d="M497.6 279.57H444.17V284.27H497.6V279.57Z" fill="#D9ECFA"/>
<path d="M503.71 309.65H170.38C162.145 309.65 155.47 316.325 155.47 324.56V373.39C155.47 381.625 162.145 388.3 170.38 388.3H503.71C511.945 388.3 518.62 381.625 518.62 373.39V324.56C518.62 316.325 511.945 309.65 503.71 309.65Z" fill="white" stroke="#669AFF" stroke-miterlimit="10"/>
<path d="M237.06 350.18H501.69" stroke="#D9ECFA" stroke-miterlimit="10"/>
<path d="M237.18 324.47V376.07" stroke="#D9ECFA" stroke-miterlimit="10"/>
<path d="M254.46 329.78H250.81C248.888 329.78 247.33 331.338 247.33 333.26V336.91C247.33 338.832 248.888 340.39 250.81 340.39H254.46C256.382 340.39 257.94 338.832 257.94 336.91V333.26C257.94 331.338 256.382 329.78 254.46 329.78Z" fill="#669AFF"/>
<path d="M321.47 332.99H268.04V337.69H321.47V332.99Z" fill="#D9ECFA"/>
<path d="M226.22 328.4H172.79V342.29H226.22V328.4Z" fill="#D9ECFA"/>
<path d="M341.93 329.78H338.28C336.358 329.78 334.8 331.338 334.8 333.26V336.91C334.8 338.832 336.358 340.39 338.28 340.39H341.93C343.852 340.39 345.41 338.832 345.41 336.91V333.26C345.41 331.338 343.852 329.78 341.93 329.78Z" fill="#D9ECFA"/>
<path d="M408.94 332.99H355.51V337.69H408.94V332.99Z" fill="#D9ECFA"/>
<path d="M430.59 329.78H426.94C425.018 329.78 423.46 331.338 423.46 333.26V336.91C423.46 338.832 425.018 340.39 426.94 340.39H430.59C432.512 340.39 434.07 338.832 434.07 336.91V333.26C434.07 331.338 432.512 329.78 430.59 329.78Z" fill="#D9ECFA"/>
<path d="M497.6 332.99H444.17V337.69H497.6V332.99Z" fill="#D9ECFA"/>
<path d="M254.46 359.02H250.81C248.888 359.02 247.33 360.578 247.33 362.5V366.15C247.33 368.072 248.888 369.63 250.81 369.63H254.46C256.382 369.63 257.94 368.072 257.94 366.15V362.5C257.94 360.578 256.382 359.02 254.46 359.02Z" fill="#D9ECFA"/>
<path d="M180.48 350.85H178.2C177.007 350.85 176.04 351.817 176.04 353.01V355.29C176.04 356.483 177.007 357.45 178.2 357.45H180.48C181.673 357.45 182.64 356.483 182.64 355.29V353.01C182.64 351.817 181.673 350.85 180.48 350.85Z" fill="#D9ECFA"/>
<path d="M191.18 350.85H188.9C187.707 350.85 186.74 351.817 186.74 353.01V355.29C186.74 356.483 187.707 357.45 188.9 357.45H191.18C192.373 357.45 193.34 356.483 193.34 355.29V353.01C193.34 351.817 192.373 350.85 191.18 350.85Z" fill="#D9ECFA"/>
<path d="M201.89 350.85H199.61C198.417 350.85 197.45 351.817 197.45 353.01V355.29C197.45 356.483 198.417 357.45 199.61 357.45H201.89C203.083 357.45 204.05 356.483 204.05 355.29V353.01C204.05 351.817 203.083 350.85 201.89 350.85Z" fill="#669AFF"/>
<path d="M321.47 362.23H268.04V366.93H321.47V362.23Z" fill="#D9ECFA"/>
<path d="M341.93 359.02H338.28C336.358 359.02 334.8 360.578 334.8 362.5V366.15C334.8 368.072 336.358 369.63 338.28 369.63H341.93C343.852 369.63 345.41 368.072 345.41 366.15V362.5C345.41 360.578 343.852 359.02 341.93 359.02Z" fill="#669AFF"/>
<path d="M408.94 362.23H355.51V366.93H408.94V362.23Z" fill="#D9ECFA"/>
<path d="M430.59 359.02H426.94C425.018 359.02 423.46 360.578 423.46 362.5V366.15C423.46 368.072 425.018 369.63 426.94 369.63H430.59C432.512 369.63 434.07 368.072 434.07 366.15V362.5C434.07 360.578 432.512 359.02 430.59 359.02Z" fill="#D9ECFA"/>
<path d="M497.6 362.23H444.17V366.93H497.6V362.23Z" fill="#D9ECFA"/>
<path d="M503.71 392.31H170.38C162.145 392.31 155.47 398.985 155.47 407.22V456.05C155.47 464.284 162.145 470.96 170.38 470.96H503.71C511.945 470.96 518.62 464.284 518.62 456.05V407.22C518.62 398.985 511.945 392.31 503.71 392.31Z" fill="white" stroke="#669AFF" stroke-miterlimit="10"/>
<path d="M237.06 432.84H501.69" stroke="#D9ECFA" stroke-miterlimit="10"/>
<path d="M237.18 407.13V458.74" stroke="#D9ECFA" stroke-miterlimit="10"/>
<path d="M254.46 412.44H250.81C248.888 412.44 247.33 413.998 247.33 415.92V419.57C247.33 421.492 248.888 423.05 250.81 423.05H254.46C256.382 423.05 257.94 421.492 257.94 419.57V415.92C257.94 413.998 256.382 412.44 254.46 412.44Z" fill="#D9ECFA"/>
<path d="M321.47 415.65H268.04V420.35H321.47V415.65Z" fill="#D9ECFA"/>
<path d="M226.22 411.06H172.79V424.95H226.22V411.06Z" fill="#D9ECFA"/>
<path d="M341.93 412.44H338.28C336.358 412.44 334.8 413.998 334.8 415.92V419.57C334.8 421.492 336.358 423.05 338.28 423.05H341.93C343.852 423.05 345.41 421.492 345.41 419.57V415.92C345.41 413.998 343.852 412.44 341.93 412.44Z" fill="#669AFF"/>
<path d="M408.94 415.65H355.51V420.35H408.94V415.65Z" fill="#D9ECFA"/>
<path d="M430.59 412.44H426.94C425.018 412.44 423.46 413.998 423.46 415.92V419.57C423.46 421.492 425.018 423.05 426.94 423.05H430.59C432.512 423.05 434.07 421.492 434.07 419.57V415.92C434.07 413.998 432.512 412.44 430.59 412.44Z" fill="#D9ECFA"/>
<path d="M497.6 415.65H444.17V420.35H497.6V415.65Z" fill="#D9ECFA"/>
<path d="M254.46 441.68H250.81C248.888 441.68 247.33 443.238 247.33 445.16V448.81C247.33 450.732 248.888 452.29 250.81 452.29H254.46C256.382 452.29 257.94 450.732 257.94 448.81V445.16C257.94 443.238 256.382 441.68 254.46 441.68Z" fill="#D9ECFA"/>
<path d="M180.48 433.51H178.2C177.007 433.51 176.04 434.477 176.04 435.67V437.95C176.04 439.143 177.007 440.11 178.2 440.11H180.48C181.673 440.11 182.64 439.143 182.64 437.95V435.67C182.64 434.477 181.673 433.51 180.48 433.51Z" fill="#D9ECFA"/>
<path d="M191.18 433.51H188.9C187.707 433.51 186.74 434.477 186.74 435.67V437.95C186.74 439.143 187.707 440.11 188.9 440.11H191.18C192.373 440.11 193.34 439.143 193.34 437.95V435.67C193.34 434.477 192.373 433.51 191.18 433.51Z" fill="#669AFF"/>
<path d="M201.89 433.51H199.61C198.417 433.51 197.45 434.477 197.45 435.67V437.95C197.45 439.143 198.417 440.11 199.61 440.11H201.89C203.083 440.11 204.05 439.143 204.05 437.95V435.67C204.05 434.477 203.083 433.51 201.89 433.51Z" fill="#D9ECFA"/>
<path d="M321.47 444.89H268.04V449.59H321.47V444.89Z" fill="#D9ECFA"/>
<path d="M341.93 441.68H338.28C336.358 441.68 334.8 443.238 334.8 445.16V448.81C334.8 450.732 336.358 452.29 338.28 452.29H341.93C343.852 452.29 345.41 450.732 345.41 448.81V445.16C345.41 443.238 343.852 441.68 341.93 441.68Z" fill="#D9ECFA"/>
<path d="M408.94 444.89H355.51V449.59H408.94V444.89Z" fill="#D9ECFA"/>
<path d="M430.59 441.68H426.94C425.018 441.68 423.46 443.238 423.46 445.16V448.81C423.46 450.732 425.018 452.29 426.94 452.29H430.59C432.512 452.29 434.07 450.732 434.07 448.81V445.16C434.07 443.238 432.512 441.68 430.59 441.68Z" fill="#669AFF"/>
<path d="M497.6 444.89H444.17V449.59H497.6V444.89Z" fill="#D9ECFA"/>
<path d="M182.55 158.35V251.91" stroke="white" stroke-width="1.89" stroke-miterlimit="10"/>
<g filter="url(#filter0_d_615_326)">
<path d="M386.41 89.72H57.37C49.8423 89.72 43.74 95.8223 43.74 103.35V312.78C43.74 320.308 49.8423 326.41 57.37 326.41H386.41C393.938 326.41 400.04 320.308 400.04 312.78V103.35C400.04 95.8223 393.938 89.72 386.41 89.72Z" fill="white"/>
</g>
<path d="M183.8 123.33H202.53" stroke="#E6E6E6" stroke-width="4.71" stroke-miterlimit="10" stroke-linecap="round"/>
<path d="M239.69 123.33H258.42" stroke="#E6E6E6" stroke-width="4.71" stroke-miterlimit="10" stroke-linecap="round"/>
<path d="M295.33 123.33H314.06" stroke="#E6E6E6" stroke-width="4.71" stroke-miterlimit="10" stroke-linecap="round"/>
<path d="M350.97 123.33H369.7" stroke="#E6E6E6" stroke-width="4.71" stroke-miterlimit="10" stroke-linecap="round"/>
<path d="M125.97 123.23H136.87" stroke="#E6E6E6" stroke-width="4.71" stroke-miterlimit="10" stroke-linecap="round"/>
<path d="M69.75 158.09H92.69" stroke="#E5E5E5" stroke-width="3.27" stroke-miterlimit="10" stroke-linecap="round"/>
<path d="M69.13 184.22H92.07" stroke="#E5E5E5" stroke-width="3.27" stroke-miterlimit="10" stroke-linecap="round"/>
<path d="M69.13 210.35H92.07" stroke="#E5E5E5" stroke-width="3.27" stroke-miterlimit="10" stroke-linecap="round"/>
<path d="M69.13 236.49H92.07" stroke="#E5E5E5" stroke-width="3.27" stroke-miterlimit="10" stroke-linecap="round"/>
<path d="M69.13 262.62H92.07" stroke="#E5E5E5" stroke-width="3.27" stroke-miterlimit="10" stroke-linecap="round"/>
<path d="M69.13 288.75H92.07" stroke="#E5E5E5" stroke-width="3.27" stroke-miterlimit="10" stroke-linecap="round"/>
<path d="M129.12 184.22H136.87" stroke="#E5E5E5" stroke-width="2.28" stroke-miterlimit="10" stroke-linecap="round"/>
<path d="M129.12 210.35H136.87" stroke="#E5E5E5" stroke-width="2.28" stroke-miterlimit="10" stroke-linecap="round"/>
<path d="M129.12 236.49H136.87" stroke="#E5E5E5" stroke-width="2.28" stroke-miterlimit="10" stroke-linecap="round"/>
<path d="M129.12 262.62H136.87" stroke="#E5E5E5" stroke-width="2.28" stroke-miterlimit="10" stroke-linecap="round"/>
<path d="M129.12 288.75H136.87" stroke="#E5E5E5" stroke-width="2.28" stroke-miterlimit="10" stroke-linecap="round"/>
<path d="M110.71 106.1V310.03" stroke="#E5E5E5" stroke-width="0.55" stroke-miterlimit="10" stroke-linecap="round"/>
<path d="M178.36 236.26H167.6C166.435 236.26 165.49 237.205 165.49 238.37V296.73C165.49 297.895 166.435 298.84 167.6 298.84H178.36C179.525 298.84 180.47 297.895 180.47 296.73V238.37C180.47 237.205 179.525 236.26 178.36 236.26Z" fill="#005FF7"/>
<path d="M196 220.4H185.24C184.075 220.4 183.13 221.345 183.13 222.51V296.72C183.13 297.885 184.075 298.83 185.24 298.83H196C197.165 298.83 198.11 297.885 198.11 296.72V222.51C198.11 221.345 197.165 220.4 196 220.4Z" fill="#FB94AF"/>
<path d="M237.32 219.41H226.56C225.395 219.41 224.45 220.355 224.45 221.52V296.72C224.45 297.885 225.395 298.83 226.56 298.83H237.32C238.485 298.83 239.43 297.885 239.43 296.72V221.52C239.43 220.355 238.485 219.41 237.32 219.41Z" fill="#005FF7"/>
<path d="M254.95 199.29H244.19C243.025 199.29 242.08 200.235 242.08 201.4V296.72C242.08 297.885 243.025 298.83 244.19 298.83H254.95C256.115 298.83 257.06 297.885 257.06 296.72V201.4C257.06 200.235 256.115 199.29 254.95 199.29Z" fill="#FB94AF"/>
<path d="M296.28 199.3H285.52C284.355 199.3 283.41 200.245 283.41 201.41V296.73C283.41 297.895 284.355 298.84 285.52 298.84H296.28C297.445 298.84 298.39 297.895 298.39 296.73V201.41C298.39 200.245 297.445 199.3 296.28 199.3Z" fill="#005FF7"/>
<path d="M312.62 218.08H301.86C300.695 218.08 299.75 219.025 299.75 220.19V296.73C299.75 297.895 300.695 298.84 301.86 298.84H312.62C313.785 298.84 314.73 297.895 314.73 296.73V220.19C314.73 219.025 313.785 218.08 312.62 218.08Z" fill="#FB94AF"/>
<path d="M355.24 199.3H344.48C343.315 199.3 342.37 200.245 342.37 201.41V296.73C342.37 297.895 343.315 298.84 344.48 298.84H355.24C356.405 298.84 357.35 297.895 357.35 296.73V201.41C357.35 200.245 356.405 199.3 355.24 199.3Z" fill="#005FF7"/>
<path d="M371.57 174.09H360.81C359.645 174.09 358.7 175.035 358.7 176.2V296.73C358.7 297.895 359.645 298.84 360.81 298.84H371.57C372.735 298.84 373.68 297.895 373.68 296.73V176.2C373.68 175.035 372.735 174.09 371.57 174.09Z" fill="#FB94AF"/>
<path d="M160.85 157.68H203.4" stroke="#005FF7" stroke-width="4.71" stroke-miterlimit="10" stroke-linecap="round"/>
<path d="M250.83 153.85H217.01C214.895 153.85 213.18 155.562 213.18 157.675C213.18 159.787 214.895 161.5 217.01 161.5H250.83C252.945 161.5 254.66 159.787 254.66 157.675C254.66 155.562 252.945 153.85 250.83 153.85Z" fill="#F7E2F2"/>
<path d="M217.17 157.68H239.77" stroke="#FB94AF" stroke-width="3.14" stroke-miterlimit="10" stroke-linecap="round"/>
<path d="M77.99 135.41C85.4 135.41 91.4 129.41 91.4 122C91.4 114.59 85.4 108.59 77.99 108.59C70.58 108.59 64.58 114.59 64.58 122C64.58 129.41 70.58 135.41 77.99 135.41Z" fill="#005FF7"/>
<path d="M72.43 128.81C72.18 128.81 71.93 128.74 71.72 128.6C71.38 128.38 68.42 126.35 67.98 123.9C67.81 122.97 68.02 122.07 68.58 121.3C69.65 119.83 71.69 119.57 74.75 120.53L78.06 114.41C78.29 113.98 78.74 113.72 79.22 113.73C79.7 113.73 80.14 114.02 80.35 114.45L86.5 126.94C86.76 127.47 86.63 128.1 86.19 128.49C85.75 128.88 85.1 128.91 84.61 128.58C84.58 128.56 81.33 126.36 77.84 124.61C77.15 124.27 76.52 123.97 75.94 123.73L73.56 128.12C73.39 128.44 73.09 128.67 72.74 128.76C72.64 128.79 72.53 128.8 72.43 128.8V128.81ZM71.62 122.54C71.07 122.54 70.77 122.67 70.66 122.82C70.52 123.02 70.48 123.19 70.52 123.43C70.64 124.1 71.34 124.91 72.03 125.54L73.49 122.84C72.68 122.62 72.07 122.53 71.63 122.53L71.62 122.54ZM77.18 121.45C77.76 121.7 78.37 121.99 79.01 122.31C80.13 122.87 81.21 123.46 82.17 124.02L79.13 117.84L77.18 121.45V121.45Z" fill="white"/>
<path d="M45.38 344.51C56.6356 344.51 65.76 335.386 65.76 324.13C65.76 312.874 56.6356 303.75 45.38 303.75C34.1244 303.75 25 312.874 25 324.13C25 335.386 34.1244 344.51 45.38 344.51Z" fill="#00C2A4"/>
<path d="M35.85 326.11L41.8 332.06L54.02 318.18" stroke="white" stroke-width="2.58" stroke-miterlimit="10" stroke-linecap="round"/>
<path d="M94.62 398.13C100.408 398.13 105.1 393.438 105.1 387.65C105.1 381.862 100.408 377.17 94.62 377.17C88.8321 377.17 84.14 381.862 84.14 387.65C84.14 393.438 88.8321 398.13 94.62 398.13Z" fill="white" stroke="#669AFF" stroke-miterlimit="10"/>
<path d="M91.2899 382.71C92.2399 382.07 93.3899 381.69 94.6199 381.69C97.9099 381.69 100.57 384.36 100.57 387.64C100.57 390.92 97.8999 393.59 94.6199 393.59C91.3399 393.59 88.6699 390.92 88.6699 387.64" fill="white"/>
<path d="M91.2899 382.71C92.2399 382.07 93.3899 381.69 94.6199 381.69C97.9099 381.69 100.57 384.36 100.57 387.64C100.57 390.92 97.8999 393.59 94.6199 393.59C91.9499 393.59 89.6899 391.83 88.9399 389.41" stroke="#669AFF" stroke-miterlimit="10"/>
<path d="M90.29 389.55L88.67 387.65L87.84 390L90.29 389.55Z" fill="#669AFF"/>
</g>
<defs>
<filter id="filter0_d_615_326" x="8.73999" y="54.72" width="426.3" height="306.69" filterUnits="userSpaceOnUse" color-interpolation-filters="sRGB">
<feFlood flood-opacity="0" result="BackgroundImageFix"/>
<feColorMatrix in="SourceAlpha" type="matrix" values="0 0 0 0 0 0 0 0 0 0 0 0 0 0 0 0 0 0 127 0" result="hardAlpha"/>
<feOffset/>
<feGaussianBlur stdDeviation="17.5"/>
<feComposite in2="hardAlpha" operator="out"/>
<feColorMatrix type="matrix" values="0 0 0 0 0 0 0 0 0 0 0 0 0 0 0 0 0 0 0.15 0"/>
<feBlend mode="normal" in2="BackgroundImageFix" result="effect1_dropShadow_615_326"/>
<feBlend mode="normal" in="SourceGraphic" in2="effect1_dropShadow_615_326" result="shape"/>
</filter>
<clipPath id="clip0_615_326">
<rect width="544" height="458" fill="white" transform="translate(0 58)"/>
</clipPath>
</defs>
</svg>
