<svg width="544" height="544" viewBox="0 0 544 544" fill="none" xmlns="http://www.w3.org/2000/svg">
<path d="M46.1443 365.872C18.9043 293.552 52.9643 157.382 142.424 105.032C234.134 51.3725 372.534 142.762 413.154 226.412C461.274 325.482 364.194 409.763 278.334 439.893C198.624 467.863 84.7843 468.462 46.1443 365.872V365.872Z" fill="#D9ECFA"/>
<g filter="url(#filter0_d_615_384)">
<path d="M451.784 152.482H141.494C133.216 152.482 126.504 159.194 126.504 167.472V366.282C126.504 374.561 133.216 381.272 141.494 381.272H451.784C460.063 381.272 466.774 374.561 466.774 366.282V167.472C466.774 159.194 460.063 152.482 451.784 152.482Z" fill="#FCFBF9"/>
</g>
<path d="M297.624 247.762H318.684" stroke="#CBCBCB" stroke-width="2.2" stroke-miterlimit="10" stroke-linecap="round"/>
<path d="M306.404 271.373H318.684" stroke="#CBCBCB" stroke-width="2.2" stroke-miterlimit="10" stroke-linecap="round"/>
<path d="M310.544 294.472H318.684" stroke="#CBCBCB" stroke-width="2.2" stroke-miterlimit="10" stroke-linecap="round"/>
<path d="M306.404 320.302H318.684" stroke="#CBCBCB" stroke-width="2.2" stroke-miterlimit="10" stroke-linecap="round"/>
<path d="M303.844 343.402H318.684" stroke="#CBCBCB" stroke-width="2.2" stroke-miterlimit="10" stroke-linecap="round"/>
<path d="M207.244 220.232V355.502" stroke="#E3E3E3" stroke-width="0.74" stroke-miterlimit="10" stroke-linecap="round"/>
<path d="M445.464 282.682H147.804" stroke="#E3E3E3" stroke-width="0.73" stroke-miterlimit="10" stroke-linecap="round"/>
<path d="M445.464 258.373H147.804" stroke="#E3E3E3" stroke-width="0.73" stroke-miterlimit="10" stroke-linecap="round"/>
<path d="M445.464 234.052H147.804" stroke="#E3E3E3" stroke-width="0.73" stroke-miterlimit="10" stroke-linecap="round"/>
<path d="M445.464 307.002H147.804" stroke="#E3E3E3" stroke-width="0.73" stroke-miterlimit="10" stroke-linecap="round"/>
<path d="M445.464 331.312H147.804" stroke="#E3E3E3" stroke-width="0.73" stroke-miterlimit="10" stroke-linecap="round"/>
<path d="M445.464 355.633H147.804" stroke="#E3E3E3" stroke-width="0.73" stroke-miterlimit="10" stroke-linecap="round"/>
<path d="M329.584 220.232V355.502" stroke="#E3E3E3" stroke-width="0.74" stroke-miterlimit="10" stroke-linecap="round"/>
<path d="M155.104 222.242H190.804" stroke="#666666" stroke-width="2.2" stroke-miterlimit="10" stroke-linecap="round"/>
<path d="M155.104 246.422H175.914" stroke="#808080" stroke-width="2.2" stroke-miterlimit="10" stroke-linecap="round"/>
<path d="M155.104 270.593H168.894" stroke="#808080" stroke-width="2.2" stroke-miterlimit="10" stroke-linecap="round"/>
<path d="M155.104 294.772H185.934" stroke="#808080" stroke-width="2.2" stroke-miterlimit="10" stroke-linecap="round"/>
<path d="M155.104 319.232H175.914" stroke="#808080" stroke-width="2.2" stroke-miterlimit="10" stroke-linecap="round"/>
<path d="M155.104 343.402H180.254" stroke="#808080" stroke-width="2.2" stroke-miterlimit="10" stroke-linecap="round"/>
<path d="M271.944 249.982V242.862C271.944 240.675 270.171 238.902 267.984 238.902H219.064C216.877 238.902 215.104 240.675 215.104 242.862V249.982C215.104 252.169 216.877 253.942 219.064 253.942H267.984C270.171 253.942 271.944 252.169 271.944 249.982Z" fill="#7615CC"/>
<path d="M260.544 273.933V266.813C260.544 264.625 258.771 262.853 256.584 262.853H219.064C216.877 262.853 215.104 264.625 215.104 266.813V273.933C215.104 276.12 216.877 277.893 219.064 277.893H256.584C258.771 277.893 260.544 276.12 260.544 273.933Z" fill="#7615CC"/>
<path d="M255.514 297.903V290.783C255.514 288.595 253.741 286.823 251.554 286.823H219.074C216.887 286.823 215.114 288.595 215.114 290.783V297.903C215.114 300.09 216.887 301.863 219.074 301.863H251.554C253.741 301.863 255.514 300.09 255.514 297.903Z" fill="#7615CC"/>
<path d="M246.914 322.792V315.672C246.914 313.485 245.141 311.712 242.954 311.712H219.064C216.877 311.712 215.104 313.485 215.104 315.672V322.792C215.104 324.979 216.877 326.752 219.064 326.752H242.954C245.141 326.752 246.914 324.979 246.914 322.792Z" fill="#7615CC"/>
<path d="M234.744 346.962V339.842C234.744 337.655 232.971 335.882 230.784 335.882H219.064C216.877 335.882 215.104 337.655 215.104 339.842V346.962C215.104 349.149 216.877 350.922 219.064 350.922H230.784C232.971 350.922 234.744 349.149 234.744 346.962Z" fill="#7615CC"/>
<path d="M418.924 247.762H439.994" stroke="#CBCBCB" stroke-width="2.2" stroke-miterlimit="10" stroke-linecap="round"/>
<path d="M427.714 271.373H439.994" stroke="#CBCBCB" stroke-width="2.2" stroke-miterlimit="10" stroke-linecap="round"/>
<path d="M431.854 294.472H439.994" stroke="#CBCBCB" stroke-width="2.2" stroke-miterlimit="10" stroke-linecap="round"/>
<path d="M427.714 320.302H439.994" stroke="#CBCBCB" stroke-width="2.2" stroke-miterlimit="10" stroke-linecap="round"/>
<path d="M425.154 343.402H439.994" stroke="#CBCBCB" stroke-width="2.2" stroke-miterlimit="10" stroke-linecap="round"/>
<path d="M393.254 249.982V242.862C393.254 240.675 391.481 238.902 389.294 238.902H340.374C338.187 238.902 336.414 240.675 336.414 242.862V249.982C336.414 252.169 338.187 253.942 340.374 253.942H389.294C391.481 253.942 393.254 252.169 393.254 249.982Z" fill="#D4ACFD"/>
<path d="M381.844 273.942V266.822C381.844 264.635 380.071 262.862 377.884 262.862H340.364C338.177 262.862 336.404 264.635 336.404 266.822V273.942C336.404 276.129 338.177 277.902 340.364 277.902H377.884C380.071 277.902 381.844 276.129 381.844 273.942Z" fill="#D4ACFD"/>
<path d="M376.814 297.893V290.773C376.814 288.585 375.041 286.812 372.854 286.812H340.374C338.187 286.812 336.414 288.585 336.414 290.773V297.893C336.414 300.08 338.187 301.853 340.374 301.853H372.854C375.041 301.853 376.814 300.08 376.814 297.893Z" fill="#D4ACFD"/>
<path d="M368.224 322.792V315.672C368.224 313.485 366.451 311.712 364.264 311.712H340.374C338.187 311.712 336.414 313.485 336.414 315.672V322.792C336.414 324.979 338.187 326.752 340.374 326.752H364.264C366.451 326.752 368.224 324.979 368.224 322.792Z" fill="#D4ACFD"/>
<path d="M356.054 346.962V339.842C356.054 337.655 354.281 335.882 352.094 335.882H340.374C338.187 335.882 336.414 337.655 336.414 339.842V346.962C336.414 349.149 338.187 350.922 340.374 350.922H352.094C354.281 350.922 356.054 349.149 356.054 346.962Z" fill="#D4ACFD"/>
<path d="M161.664 198.302H163.464V189.902H161.964C161.964 189.902 161.544 190.862 160.224 191.042V192.182H161.664V198.302ZM164.9 198.302H170.84V196.622H167.24C168.2 195.122 170.84 194.762 170.84 192.362C170.84 190.862 169.7 189.722 167.9 189.722C165.56 189.722 164.9 191.702 164.9 191.702L166.34 192.422C166.34 192.422 166.76 191.402 167.78 191.402C168.5 191.402 168.98 191.882 168.98 192.482C168.98 194.342 164.9 194.342 164.9 198.302ZM172.222 199.862L173.902 197.282L172.522 196.502L171.262 199.322L172.222 199.862ZM176.245 198.302H178.105L180.445 194.702C180.445 194.702 181.165 193.802 181.165 192.662C181.165 191.042 179.845 189.722 177.985 189.722C176.125 189.722 174.805 191.042 174.805 192.662C174.805 194.282 176.125 195.602 177.625 195.602C177.865 195.602 178.045 195.542 178.045 195.542L176.245 198.302ZM177.985 193.982C177.205 193.982 176.665 193.442 176.665 192.662C176.665 191.882 177.205 191.342 177.985 191.342C178.765 191.342 179.305 191.882 179.305 192.662C179.305 193.442 178.765 193.982 177.985 193.982ZM181.775 198.302H187.715V196.622H184.115C185.075 195.122 187.715 194.762 187.715 192.362C187.715 190.862 186.575 189.722 184.775 189.722C182.435 189.722 181.775 191.702 181.775 191.702L183.215 192.422C183.215 192.422 183.635 191.402 184.655 191.402C185.375 191.402 185.855 191.882 185.855 192.482C185.855 194.342 181.775 194.342 181.775 198.302ZM190.237 198.302H192.097L194.437 194.702C194.437 194.702 195.157 193.802 195.157 192.662C195.157 191.042 193.837 189.722 191.977 189.722C190.117 189.722 188.797 191.042 188.797 192.662C188.797 194.282 190.117 195.602 191.617 195.602C191.857 195.602 192.037 195.542 192.037 195.542L190.237 198.302ZM191.977 193.982C191.197 193.982 190.657 193.442 190.657 192.662C190.657 191.882 191.197 191.342 191.977 191.342C192.757 191.342 193.297 191.882 193.297 192.662C193.297 193.442 192.757 193.982 191.977 193.982Z" fill="#808080"/>
<path d="M268.224 199.502H269.784V198.422C271.104 198.122 272.064 197.162 272.064 195.902C272.064 192.962 267.864 193.622 267.864 192.182C267.864 191.702 268.224 191.342 269.124 191.342C270.084 191.342 270.684 192.062 270.684 192.062L271.884 190.862C271.884 190.862 271.044 189.962 269.784 189.782V188.702H268.224V189.782C266.844 190.142 266.004 190.982 266.004 192.182C266.004 195.122 270.204 194.462 270.204 195.902C270.204 196.442 269.784 196.862 268.824 196.862C267.564 196.862 266.844 195.962 266.844 195.962L265.644 197.162C265.644 197.162 266.484 198.182 268.224 198.422V199.502ZM274.224 198.302H276.024V189.902H274.524C274.524 189.902 274.104 190.862 272.784 191.042V192.182H274.224V198.302ZM277.88 199.862L279.56 197.282L278.18 196.502L276.92 199.322L277.88 199.862ZM283.642 198.482C285.562 198.482 286.762 197.282 286.762 195.902C286.762 194.402 285.382 193.802 285.382 193.802C285.382 193.802 286.462 193.262 286.462 192.062C286.462 190.862 285.322 189.722 283.642 189.722C281.962 189.722 280.822 190.862 280.822 192.062C280.822 193.262 281.902 193.802 281.902 193.802C281.902 193.802 280.522 194.402 280.522 195.902C280.522 197.282 281.722 198.482 283.642 198.482ZM283.642 196.862C282.862 196.862 282.382 196.382 282.382 195.782C282.382 195.182 282.862 194.702 283.642 194.702C284.422 194.702 284.902 195.182 284.902 195.782C284.902 196.382 284.422 196.862 283.642 196.862ZM283.642 193.142C283.042 193.142 282.622 192.722 282.622 192.242C282.622 191.762 283.042 191.342 283.642 191.342C284.242 191.342 284.662 191.762 284.662 192.242C284.662 192.722 284.242 193.142 283.642 193.142ZM291.447 198.302H293.247V196.802H294.207V195.122H293.247V189.902H291.147L287.487 194.882V196.802H291.447V198.302ZM289.347 195.122L291.447 192.242V195.122H289.347ZM298.585 198.482C300.505 198.482 302.185 196.802 302.185 194.102C302.185 191.402 300.505 189.722 298.585 189.722C296.665 189.722 294.985 191.402 294.985 194.102C294.985 196.802 296.665 198.482 298.585 198.482ZM298.585 196.802C297.685 196.802 296.785 195.902 296.785 194.102C296.785 192.302 297.685 191.402 298.585 191.402C299.485 191.402 300.385 192.302 300.385 194.102C300.385 195.902 299.485 196.802 298.585 196.802Z" fill="#808080"/>
<path d="M374.814 199.502H376.374V198.422C377.694 198.122 378.654 197.162 378.654 195.902C378.654 192.962 374.454 193.622 374.454 192.182C374.454 191.702 374.814 191.342 375.714 191.342C376.674 191.342 377.274 192.062 377.274 192.062L378.474 190.862C378.474 190.862 377.634 189.962 376.374 189.782V188.702H374.814V189.782C373.434 190.142 372.594 190.982 372.594 192.182C372.594 195.122 376.794 194.462 376.794 195.902C376.794 196.442 376.374 196.862 375.414 196.862C374.154 196.862 373.434 195.962 373.434 195.962L372.234 197.162C372.234 197.162 373.074 198.182 374.814 198.422V199.502ZM382.674 198.482C384.594 198.482 385.794 197.282 385.794 195.902C385.794 194.402 384.414 193.802 384.414 193.802C384.414 193.802 385.494 193.262 385.494 192.062C385.494 190.862 384.354 189.722 382.674 189.722C380.994 189.722 379.854 190.862 379.854 192.062C379.854 193.262 380.934 193.802 380.934 193.802C380.934 193.802 379.554 194.402 379.554 195.902C379.554 197.282 380.754 198.482 382.674 198.482ZM382.674 196.862C381.894 196.862 381.414 196.382 381.414 195.782C381.414 195.182 381.894 194.702 382.674 194.702C383.454 194.702 383.934 195.182 383.934 195.782C383.934 196.382 383.454 196.862 382.674 196.862ZM382.674 193.142C382.074 193.142 381.654 192.722 381.654 192.242C381.654 191.762 382.074 191.342 382.674 191.342C383.274 191.342 383.694 191.762 383.694 192.242C383.694 192.722 383.274 193.142 382.674 193.142ZM387.004 198.302H388.864L392.164 191.462V189.902H386.404V191.582H390.244L387.004 198.302ZM396.374 198.482C398.294 198.482 399.974 196.802 399.974 194.102C399.974 191.402 398.294 189.722 396.374 189.722C394.454 189.722 392.774 191.402 392.774 194.102C392.774 196.802 394.454 198.482 396.374 198.482ZM396.374 196.802C395.474 196.802 394.574 195.902 394.574 194.102C394.574 192.302 395.474 191.402 396.374 191.402C397.274 191.402 398.174 192.302 398.174 194.102C398.174 195.902 397.274 196.802 396.374 196.802Z" fill="#808080"/>
<path d="M161.554 182.542H183.714" stroke="#B0B0B0" stroke-width="3.08" stroke-miterlimit="10" stroke-linecap="round"/>
<path d="M267.384 182.542H292.224" stroke="#B0B0B0" stroke-width="3.08" stroke-miterlimit="10" stroke-linecap="round"/>
<path d="M373.974 182.542H404.184" stroke="#B0B0B0" stroke-width="3.08" stroke-miterlimit="10" stroke-linecap="round"/>
<path d="M154.414 179.022H147.364V186.072H154.414V179.022Z" fill="#7615CC"/>
<path d="M260.234 179.022H253.184V186.072H260.234V179.022Z" fill="#D4ACFD"/>
<path d="M367.204 179.022H360.154V186.072H367.204V179.022Z" fill="#EFEAE2"/>
<path d="M481.834 315.873H433.804C420.086 315.873 408.964 326.994 408.964 340.713V341.553C408.964 355.271 420.086 366.393 433.804 366.393H481.834C495.553 366.393 506.674 355.271 506.674 341.553V340.713C506.674 326.994 495.553 315.873 481.834 315.873Z" fill="#001847"/>
<path d="M434.284 362.183C446.037 362.183 455.564 352.655 455.564 340.903C455.564 329.15 446.037 319.623 434.284 319.623C422.532 319.623 413.004 329.15 413.004 340.903C413.004 352.655 422.532 362.183 434.284 362.183Z" fill="#9E204C"/>
<path d="M427.424 349.183L440.184 334.693" stroke="white" stroke-width="2.69" stroke-miterlimit="10" stroke-linecap="round"/>
<path d="M440.184 349.183L427.424 334.693" stroke="white" stroke-width="2.69" stroke-miterlimit="10" stroke-linecap="round"/>
<path d="M481.834 374.812H433.804C420.086 374.812 408.964 385.934 408.964 399.652V400.492C408.964 414.211 420.086 425.332 433.804 425.332H481.834C495.553 425.332 506.674 414.211 506.674 400.492V399.652C506.674 385.934 495.553 374.812 481.834 374.812Z" fill="#001847"/>
<path d="M480.874 421.122C492.627 421.122 502.154 411.595 502.154 399.842C502.154 388.09 492.627 378.562 480.874 378.562C469.122 378.562 459.594 388.09 459.594 399.842C459.594 411.595 469.122 421.122 480.874 421.122Z" fill="#00C2A4"/>
<path d="M470.924 401.913L477.144 408.123L489.894 393.633" stroke="white" stroke-width="2.69" stroke-miterlimit="10" stroke-linecap="round"/>
<defs>
<filter id="filter0_d_615_384" x="109.384" y="136.212" width="384.79" height="273.31" filterUnits="userSpaceOnUse" color-interpolation-filters="sRGB">
<feFlood flood-opacity="0" result="BackgroundImageFix"/>
<feColorMatrix in="SourceAlpha" type="matrix" values="0 0 0 0 0 0 0 0 0 0 0 0 0 0 0 0 0 0 127 0" result="hardAlpha"/>
<feOffset dx="5.14" dy="5.99"/>
<feGaussianBlur stdDeviation="11.13"/>
<feColorMatrix type="matrix" values="0 0 0 0 0 0 0 0 0 0 0 0 0 0 0 0 0 0 0.14 0"/>
<feBlend mode="normal" in2="BackgroundImageFix" result="effect1_dropShadow_615_384"/>
<feBlend mode="normal" in="SourceGraphic" in2="effect1_dropShadow_615_384" result="shape"/>
</filter>
</defs>
</svg>
