<svg width="544" height="544" viewBox="0 0 544 544" fill="none" xmlns="http://www.w3.org/2000/svg">
<path d="M394 306.8V126.97C394 118.625 387.235 111.86 378.89 111.86L100.98 111.86C92.635 111.86 85.87 118.625 85.87 126.97V306.8C85.87 315.145 92.635 321.91 100.98 321.91H378.89C387.235 321.91 394 315.145 394 306.8Z" fill="#D9ECFA"/>
<g filter="url(#filter0_d_647_396)">
<path d="M91.88 132.89H62.54C55.7469 132.89 50.24 138.397 50.24 145.19V174.53C50.24 181.323 55.7469 186.83 62.54 186.83H91.88C98.6731 186.83 104.18 181.323 104.18 174.53V145.19C104.18 138.397 98.6731 132.89 91.88 132.89Z" fill="white"/>
</g>
<g opacity="0.6">
<path d="M78.31 150.97C83.34 150.97 87.43 155.06 87.43 160.09C87.43 165.12 83.34 169.21 78.31 169.21C73.28 169.21 69.19 165.12 69.19 160.09C69.19 155.06 73.28 150.97 78.31 150.97ZM78.31 145.58C70.3 145.58 63.81 152.07 63.81 160.08C63.81 168.09 70.3 174.58 78.31 174.58C86.32 174.58 92.81 168.09 92.81 160.08C92.81 152.07 86.32 145.58 78.31 145.58Z" fill="#D4ACFD"/>
</g>
<path d="M30.02 301.85C39.9722 301.85 48.04 293.782 48.04 283.83C48.04 273.878 39.9722 265.81 30.02 265.81C20.0678 265.81 12 273.878 12 283.83C12 293.782 20.0678 301.85 30.02 301.85Z" stroke="#669AFF" stroke-miterlimit="10"/>
<path d="M319.52 301.85C329.472 301.85 337.54 293.782 337.54 283.83C337.54 273.878 329.472 265.81 319.52 265.81C309.568 265.81 301.5 273.878 301.5 283.83C301.5 293.782 309.568 301.85 319.52 301.85Z" stroke="white" stroke-miterlimit="10"/>
<path d="M29.1 287.66H30.9V279.26H29.4C29.4 279.26 28.98 280.22 27.66 280.4V281.54H29.1V287.66Z" fill="#669AFF"/>
<path d="M313.88 289.66H319.82V287.98H316.22C317.18 286.48 319.82 286.12 319.82 283.72C319.82 282.22 318.68 281.08 316.88 281.08C314.54 281.08 313.88 283.06 313.88 283.06L315.32 283.78C315.32 283.78 315.74 282.76 316.76 282.76C317.48 282.76 317.96 283.24 317.96 283.84C317.96 285.7 313.88 285.7 313.88 289.66Z" fill="white"/>
<path d="M47.64 284.13H287.64" stroke="url(#paint0_linear_647_396)" stroke-miterlimit="10"/>
<path d="M287 288.65L295.63 283.66L287 278.67V288.65Z" fill="url(#paint1_linear_647_396)"/>
<path d="M471.89 188.69H347C336.17 188.69 327.39 197.47 327.39 208.3V208.31C327.39 219.14 336.17 227.92 347 227.92H471.89C482.72 227.92 491.5 219.14 491.5 208.31V208.3C491.5 197.47 482.72 188.69 471.89 188.69Z" fill="#001847"/>
<path d="M345.9 213.29C347.88 213.29 349.08 212.09 349.08 210.71C349.08 207.77 344.88 208.43 344.88 206.99C344.88 206.51 345.24 206.15 346.14 206.15C347.1 206.15 347.7 206.87 347.7 206.87L348.9 205.67C348.9 205.67 347.94 204.53 346.08 204.53C344.16 204.53 343.02 205.67 343.02 206.99C343.02 209.93 347.22 209.27 347.22 210.71C347.22 211.25 346.8 211.67 345.84 211.67C344.58 211.67 343.86 210.77 343.86 210.77L342.66 211.97C342.66 211.97 343.74 213.29 345.9 213.29ZM352.92 213.29C354.9 213.29 356.1 212.09 356.1 210.71C356.1 207.77 351.9 208.43 351.9 206.99C351.9 206.51 352.26 206.15 353.16 206.15C354.12 206.15 354.72 206.87 354.72 206.87L355.92 205.67C355.92 205.67 354.96 204.53 353.1 204.53C351.18 204.53 350.04 205.67 350.04 206.99C350.04 209.93 354.24 209.27 354.24 210.71C354.24 211.25 353.82 211.67 352.86 211.67C351.6 211.67 350.88 210.77 350.88 210.77L349.68 211.97C349.68 211.97 350.76 213.29 352.92 213.29ZM361.559 213.29C364.139 213.29 366.119 211.31 366.119 208.91C366.119 206.51 364.139 204.53 361.559 204.53C358.979 204.53 356.999 206.51 356.999 208.91C356.999 211.31 358.979 213.29 361.559 213.29ZM361.559 211.61C360.059 211.61 358.859 210.41 358.859 208.91C358.859 207.41 360.059 206.21 361.559 206.21C363.059 206.21 364.259 207.41 364.259 208.91C364.259 210.41 363.059 211.61 361.559 211.61Z" fill="white"/>
<path d="M471.74 224.66C480.869 224.66 488.27 217.259 488.27 208.13C488.27 199.001 480.869 191.6 471.74 191.6C462.611 191.6 455.21 199.001 455.21 208.13C455.21 217.259 462.611 224.66 471.74 224.66Z" fill="white"/>
<path d="M464.01 209.73L468.84 214.56L478.74 203.3" stroke="#669AFF" stroke-width="2.09" stroke-miterlimit="10" stroke-linecap="round"/>
<path opacity="0.22" d="M471.64 250.88C495.151 250.88 514.21 231.821 514.21 208.31C514.21 184.799 495.151 165.74 471.64 165.74C448.129 165.74 429.07 184.799 429.07 208.31C429.07 231.821 448.129 250.88 471.64 250.88Z" stroke="#669AFF" stroke-width="0.8" stroke-miterlimit="10"/>
<path opacity="0.11" d="M470.92 279.59C510.287 279.59 542.2 247.677 542.2 208.31C542.2 168.943 510.287 137.03 470.92 137.03C431.553 137.03 399.64 168.943 399.64 208.31C399.64 247.677 431.553 279.59 470.92 279.59Z" stroke="#669AFF" stroke-width="0.75" stroke-miterlimit="10"/>
<path opacity="0.6" d="M471.64 233.01C485.281 233.01 496.34 221.951 496.34 208.31C496.34 194.669 485.281 183.61 471.64 183.61C457.999 183.61 446.94 194.669 446.94 208.31C446.94 221.951 457.999 233.01 471.64 233.01Z" stroke="#669AFF" stroke-width="0.86" stroke-miterlimit="10"/>
<g filter="url(#filter1_d_647_396)">
<path d="M436.19 86H392.63C382.54 86 374.36 94.1798 374.36 104.27V147.83C374.36 157.92 382.54 166.1 392.63 166.1H436.19C446.28 166.1 454.46 157.92 454.46 147.83V104.27C454.46 94.1798 446.28 86 436.19 86Z" fill="white"/>
</g>
<path d="M414.4 112.51C421.86 112.51 427.94 118.58 427.94 126.05C427.94 133.52 421.87 139.59 414.4 139.59C406.93 139.59 400.86 133.52 400.86 126.05C400.86 118.58 406.93 112.51 414.4 112.51ZM414.4 104.51C402.5 104.51 392.86 114.15 392.86 126.05C392.86 137.95 402.5 147.59 414.4 147.59C426.3 147.59 435.94 137.95 435.94 126.05C435.94 114.15 426.3 104.51 414.4 104.51Z" fill="#669AFF"/>
<g filter="url(#filter2_d_647_396)">
<path d="M365.3 347.39H305.01C291.043 347.39 279.72 358.713 279.72 372.68V432.97C279.72 446.937 291.043 458.26 305.01 458.26H365.3C379.267 458.26 390.59 446.937 390.59 432.97V372.68C390.59 358.713 379.267 347.39 365.3 347.39Z" fill="white"/>
</g>
<path d="M335.15 381.77C346.76 381.77 356.21 391.22 356.21 402.83C356.21 414.44 346.76 423.89 335.15 423.89C323.54 423.89 314.09 414.44 314.09 402.83C314.09 391.22 323.54 381.77 335.15 381.77ZM335.15 371.77C318 371.77 304.09 385.68 304.09 402.83C304.09 419.98 318 433.89 335.15 433.89C352.3 433.89 366.21 419.98 366.21 402.83C366.21 385.68 352.3 371.77 335.15 371.77Z" fill="#66DAC9"/>
<path d="M145.58 418.5H236.25C242.066 418.5 246.78 413.786 246.78 407.97L246.78 223.61C246.78 217.794 242.066 213.08 236.25 213.08H145.58C139.764 213.08 135.05 217.794 135.05 223.61L135.05 407.97C135.05 413.786 139.764 418.5 145.58 418.5Z" fill="#669FFA"/>
<path d="M191.66 301.12C209.317 301.12 223.63 286.807 223.63 269.15C223.63 251.494 209.317 237.18 191.66 237.18C174.003 237.18 159.69 251.494 159.69 269.15C159.69 286.807 174.003 301.12 191.66 301.12Z" fill="#001847"/>
<path d="M182.68 352.52H156.14C152.252 352.52 149.1 355.672 149.1 359.56V374.54C149.1 378.428 152.252 381.58 156.14 381.58H182.68C186.568 381.58 189.72 378.428 189.72 374.54V359.56C189.72 355.672 186.568 352.52 182.68 352.52Z" stroke="white" stroke-miterlimit="10"/>
<path d="M226.31 352.52H199.77C195.882 352.52 192.73 355.672 192.73 359.56V374.54C192.73 378.428 195.882 381.58 199.77 381.58H226.31C230.198 381.58 233.35 378.428 233.35 374.54V359.56C233.35 355.672 230.198 352.52 226.31 352.52Z" fill="white"/>
<path d="M225.78 316.83H157.54C154.475 316.83 151.99 319.315 151.99 322.38C151.99 325.445 154.475 327.93 157.54 327.93H225.78C228.845 327.93 231.33 325.445 231.33 322.38C231.33 319.315 228.845 316.83 225.78 316.83Z" fill="#D9ECFA"/>
<path d="M163.03 373.93L175.79 359.44" stroke="white" stroke-miterlimit="10"/>
<path d="M175.79 373.93L163.03 359.44" stroke="white" stroke-miterlimit="10"/>
<path d="M203.55 367.41L209.77 373.62L222.52 359.13" stroke="#669AFF" stroke-miterlimit="10"/>
<defs>
<filter id="filter0_d_647_396" x="25.1" y="107.75" width="104.22" height="104.22" filterUnits="userSpaceOnUse" color-interpolation-filters="sRGB">
<feFlood flood-opacity="0" result="BackgroundImageFix"/>
<feColorMatrix in="SourceAlpha" type="matrix" values="0 0 0 0 0 0 0 0 0 0 0 0 0 0 0 0 0 0 127 0" result="hardAlpha"/>
<feOffset/>
<feGaussianBlur stdDeviation="12.57"/>
<feColorMatrix type="matrix" values="0 0 0 0 0 0 0 0 0 0 0 0 0 0 0 0 0 0 0.15 0"/>
<feBlend mode="normal" in2="BackgroundImageFix" result="effect1_dropShadow_647_396"/>
<feBlend mode="normal" in="SourceGraphic" in2="effect1_dropShadow_647_396" result="shape"/>
</filter>
<filter id="filter1_d_647_396" x="344.36" y="56" width="140.1" height="140.1" filterUnits="userSpaceOnUse" color-interpolation-filters="sRGB">
<feFlood flood-opacity="0" result="BackgroundImageFix"/>
<feColorMatrix in="SourceAlpha" type="matrix" values="0 0 0 0 0 0 0 0 0 0 0 0 0 0 0 0 0 0 127 0" result="hardAlpha"/>
<feOffset/>
<feGaussianBlur stdDeviation="15"/>
<feColorMatrix type="matrix" values="0 0 0 0 0 0 0 0 0 0 0 0 0 0 0 0 0 0 0.15 0"/>
<feBlend mode="normal" in2="BackgroundImageFix" result="effect1_dropShadow_647_396"/>
<feBlend mode="normal" in="SourceGraphic" in2="effect1_dropShadow_647_396" result="shape"/>
</filter>
<filter id="filter2_d_647_396" x="249.72" y="317.39" width="170.87" height="170.87" filterUnits="userSpaceOnUse" color-interpolation-filters="sRGB">
<feFlood flood-opacity="0" result="BackgroundImageFix"/>
<feColorMatrix in="SourceAlpha" type="matrix" values="0 0 0 0 0 0 0 0 0 0 0 0 0 0 0 0 0 0 127 0" result="hardAlpha"/>
<feOffset/>
<feGaussianBlur stdDeviation="15"/>
<feColorMatrix type="matrix" values="0 0 0 0 0 0 0 0 0 0 0 0 0 0 0 0 0 0 0.15 0"/>
<feBlend mode="normal" in2="BackgroundImageFix" result="effect1_dropShadow_647_396"/>
<feBlend mode="normal" in="SourceGraphic" in2="effect1_dropShadow_647_396" result="shape"/>
</filter>
<linearGradient id="paint0_linear_647_396" x1="50.14" y1="284.13" x2="287.64" y2="284.13" gradientUnits="userSpaceOnUse">
<stop stop-color="#669AFF"/>
<stop stop-color="#669AFF"/>
<stop offset="1" stop-color="white"/>
</linearGradient>
<linearGradient id="paint1_linear_647_396" x1="48.0399" y1="33.1298" x2="295.63" y2="33.1298" gradientUnits="userSpaceOnUse">
<stop stop-color="#669AFF"/>
<stop offset="1" stop-color="white"/>
</linearGradient>
</defs>
</svg>
